<svg width="129" height="80" viewBox="0 0 129 80" fill="none" xmlns="http://www.w3.org/2000/svg">
<g clip-path="url(#clip0_50_1878)">
<path d="M7.57181 52.3746L17.4119 39.5726L148.912 32.3718L170.301 39.5726L178.908 59.0544C178.132 60.4804 176.916 61.6142 175.443 62.2848L172.735 63.4988C171.703 63.9724 170.586 64.2294 169.451 64.2544L10.1769 68.0632L7.57181 52.3746Z" fill="#263238"/>
<path opacity="0.2" d="M7.57181 52.3746L17.4119 39.5726L148.912 32.3718L170.301 39.5726L178.908 59.0544C178.132 60.4804 176.916 61.6142 175.443 62.2848L172.735 63.4988C171.703 63.9724 170.586 64.2294 169.451 64.2544L10.1769 68.0632L7.57181 52.3746Z" fill="white"/>
<path d="M0.470566 43.4388L2.77521 36.5715C3.1503 35.4534 3.75369 34.4267 4.5466 33.5572C5.33951 32.6877 6.3044 31.9946 7.37933 31.5226C14.112 28.5787 29.7525 22.7118 46.5066 23.3422C46.5066 23.3422 68.3256 3.46449 91.0925 0.661288C110.83 -1.76676 148.377 3.17271 158.031 4.52742C158.161 4.54433 158.281 4.60488 158.372 4.69926C158.463 4.79364 158.52 4.91631 158.533 5.0473C158.547 5.17829 158.515 5.30993 158.445 5.42081C158.374 5.5317 158.269 5.61532 158.145 5.65809L155.659 6.55428C155.465 6.62603 155.295 6.75278 155.171 6.91927C155.047 7.08576 154.973 7.28485 154.959 7.49253C154.945 7.70021 154.99 7.90761 155.091 8.08967C155.191 8.27174 155.342 8.4207 155.524 8.5186L175.841 19.2677C177.042 19.9029 178.047 20.8561 178.748 22.0242C179.449 23.1922 179.819 24.5308 179.819 25.8953V55.4592C179.818 56.9004 179.405 58.3108 178.628 59.5214C177.851 60.7321 176.743 61.6916 175.437 62.2848L172.734 63.4989C172.63 63.551 172.522 63.5927 172.418 63.6343C172.418 63.254 172.449 62.8736 172.449 62.488C172.461 59.7696 171.916 57.0778 170.849 54.5804C169.781 52.083 168.214 49.8335 166.245 47.972C164.276 46.1106 161.947 44.677 159.403 43.7608C156.859 42.8445 154.154 42.4651 151.458 42.6461C148.762 42.8272 146.132 43.565 143.732 44.8134C141.331 46.0617 139.212 47.7941 137.506 49.9024C135.801 52.0107 134.545 54.4498 133.817 57.0678C133.089 59.6858 132.904 62.4265 133.275 65.1193L54.2284 67.0107C54.9161 64.066 54.924 61.0019 54.2515 58.0536C53.5791 55.1053 52.2441 52.3513 50.349 50.0028C48.454 47.6544 46.0493 45.774 43.3195 44.506C40.5898 43.238 37.6075 42.6161 34.6017 42.6881C31.5959 42.7601 28.6465 43.524 25.9797 44.9212C23.313 46.3184 21 48.3117 19.2181 50.7482C17.4363 53.1847 16.233 55.9995 15.7007 58.9767C15.1684 61.9538 15.3212 65.014 16.1474 67.9225L8.37888 68.1049C7.62117 68.1236 6.86548 68.0181 6.14154 67.7923L4.96591 67.4327C3.52715 66.9861 2.26849 66.0873 1.37463 64.8683C0.480789 63.6492 -0.00123596 62.1741 -0.000732422 60.6592V46.143C0.00973511 45.2219 0.168915 44.3085 0.470566 43.4388Z" fill="#1E88E5"/>
<path d="M54.2542 67.0107C54.5074 65.9077 54.6685 64.7853 54.7359 63.6552L64.1823 58.7679C64.9067 58.3934 65.7001 58.1734 66.5129 58.1217L116.231 54.8392C117.133 54.7812 118.036 54.929 118.872 55.2717L133.166 61.1542C133.141 61.5971 133.125 62.04 133.125 62.4881C133.124 63.368 133.181 64.247 133.296 65.1193L54.2542 67.0107Z" fill="#263238"/>
<path d="M15.5689 64.9058C15.6909 65.926 15.8935 66.9348 16.1748 67.9226L8.40633 68.1049C7.64862 68.1237 6.89294 68.0181 6.169 67.7923L4.99336 67.4328C3.98888 67.1218 3.06674 66.5876 2.29511 65.8697L15.5689 64.9058Z" fill="#263238"/>
<path d="M35.0996 40.8284C38.3046 40.8276 41.4693 41.547 44.3626 42.9339C47.2559 44.3208 49.8049 46.3403 51.8234 48.8449C53.8419 51.3495 55.2789 54.2759 56.0296 57.4106C56.7803 60.5454 56.8258 63.8092 56.1626 66.9638L54.2567 67.0107C54.9444 64.066 54.9523 61.0019 54.2798 58.0536C53.6073 55.1053 52.2723 52.3513 50.3773 50.0028C48.4822 47.6544 46.0775 45.774 43.3478 44.506C40.618 43.238 37.6358 42.6161 34.63 42.6881C31.6242 42.7601 28.6747 43.524 26.008 44.9212C23.3413 46.3184 21.0282 48.3117 19.2464 50.7482C17.4646 53.1847 16.2613 55.9995 15.729 58.9767C15.1967 61.9538 15.3495 65.014 16.1756 67.9225L14.2646 67.9642C13.4324 64.7603 13.3415 61.4071 13.9988 58.1624C14.6562 54.9176 16.0443 51.8677 18.0564 49.2471C20.0685 46.6265 22.6511 44.5049 25.6057 43.0454C28.5603 41.586 31.8081 40.8275 35.0996 40.8284Z" fill="#263238"/>
<path d="M91.6365 5.10053C103.258 3.66767 121.732 4.93901 136.352 6.42398C136.668 6.45501 136.969 6.57473 137.22 6.76951C137.472 6.96429 137.664 7.2263 137.775 7.52561C137.885 7.82493 137.91 8.14952 137.846 8.46235C137.782 8.77519 137.632 9.06368 137.414 9.29491L129.583 17.6316C128.557 18.72 127.188 19.4177 125.709 19.6063L64.9233 27.1927C64.1783 27.2877 63.4226 27.2489 62.6911 27.0781L54.4358 25.171C54.2086 25.1191 54.0007 25.0033 53.8366 24.8369C53.6724 24.6705 53.5587 24.4606 53.5087 24.2316C53.4587 24.0027 53.4746 23.7641 53.5544 23.5439C53.6342 23.3236 53.7747 23.1308 53.9594 22.9879C61.2358 17.3346 76.4051 6.97628 91.6365 5.10053Z" fill="#263238"/>
<path opacity="0.3" d="M11.6324 61.4511H12.2124L7.94492 46.1846H5.87851L11.6324 61.4511Z" fill="black"/>
<path opacity="0.3" d="M0.0315332 60.6644V46.1429C0.0315619 45.8453 0.0471187 45.5479 0.0781426 45.252L5.10693 63.2331H4.41814L3.17 59.9297L0.192081 62.1076C0.0914493 61.633 0.037673 61.1496 0.0315332 60.6644Z" fill="black"/>
<g opacity="0.3">
<path d="M94.1953 30.0585L101.446 29.7563C101.697 29.7458 101.939 29.6604 102.142 29.511C102.345 29.3617 102.499 29.1551 102.585 28.9174C102.627 28.7999 102.639 28.6739 102.621 28.5504C102.603 28.4269 102.555 28.3099 102.482 28.2095C102.408 28.1091 102.311 28.0285 102.199 27.9747C102.087 27.921 101.963 27.8958 101.839 27.9014L94.5889 28.2088C94.3383 28.219 94.0964 28.3043 93.8943 28.4538C93.6922 28.6033 93.5392 28.8101 93.4547 29.0477C93.4129 29.1645 93.4003 29.2899 93.4181 29.4127C93.4359 29.5356 93.4835 29.6521 93.5567 29.7521C93.6299 29.852 93.7265 29.9322 93.8379 29.9857C93.9493 30.0391 94.072 30.0642 94.1953 30.0585Z" fill="black"/>
</g>
<path opacity="0.7" d="M33.7728 29.3812L30.914 28.3912C30.4426 28.2252 29.9336 28.1998 29.4483 28.3182L5.87877 34.0497L5.36087 36.1338C5.2059 36.7386 5.29332 37.3805 5.60429 37.921L5.68197 38.0565C5.93526 38.4977 6.31326 38.8532 6.76791 39.0778C7.22256 39.3023 7.7333 39.3857 8.2352 39.3174L12.8963 38.6661C13.3521 38.6053 13.7842 38.4257 14.1496 38.1451L19.5358 34.0288L33.7469 30.4493C33.857 30.4123 33.9532 30.3421 34.0222 30.2481C34.0913 30.1542 34.1298 30.0411 34.1326 29.9244C34.1355 29.8076 34.1025 29.6928 34.0381 29.5955C33.9737 29.4983 33.881 29.4235 33.7728 29.3812Z" fill="white"/>
<path d="M31.7169 29.277C31.8138 29.3185 31.8958 29.3888 31.9519 29.4784C32.0081 29.568 32.0358 29.6727 32.0313 29.7785C32.0268 29.8844 31.9903 29.9864 31.9267 30.0708C31.8632 30.1553 31.7755 30.2182 31.6755 30.2513L19.0543 33.4244L14.2741 37.0717C13.9474 37.3178 13.5645 37.4772 13.1606 37.5355L9.0174 38.1086C8.57204 38.1698 8.11864 38.0964 7.71477 37.8979C7.3109 37.6994 6.97476 37.3846 6.74901 36.9936L6.67649 36.8685C6.40486 36.3956 6.32862 35.8343 6.46417 35.3054L6.83187 33.8517L29.1844 28.4172L31.7169 29.277Z" fill="#1E88E5"/>
<path opacity="0.3" d="M31.7169 29.277C31.8138 29.3185 31.8958 29.3888 31.9519 29.4784C32.0081 29.568 32.0358 29.6727 32.0313 29.7785C32.0268 29.8844 31.9903 29.9864 31.9267 30.0708C31.8632 30.1553 31.7755 30.2182 31.6755 30.2513L19.0543 33.4244L14.2741 37.0717C13.9474 37.3178 13.5645 37.4772 13.1606 37.5355L9.0174 38.1086C8.57204 38.1698 8.11864 38.0964 7.71477 37.8979C7.3109 37.6994 6.97476 37.3846 6.74901 36.9936L6.67649 36.8685C6.40486 36.3956 6.32862 35.8343 6.46417 35.3054L6.83187 33.8517L29.1844 28.4172L31.7169 29.277Z" fill="white"/>
<path d="M6.84693 33.8151L16.7129 31.4131L12.5438 35.4772C12.2617 35.761 11.9004 35.9518 11.508 36.0243L7.68592 36.7017C7.28334 36.7722 6.869 36.6926 6.52065 36.4776C6.38667 36.0882 6.37045 35.6675 6.47404 35.2688L6.84693 33.8151Z" fill="#1E88E5"/>
<path opacity="0.6" d="M6.84693 33.8151L16.7129 31.4131L12.5438 35.4772C12.2617 35.761 11.9004 35.9518 11.508 36.0243L7.68592 36.7017C7.28334 36.7722 6.869 36.6926 6.52065 36.4776C6.38667 36.0882 6.37045 35.6675 6.47404 35.2688L6.84693 33.8151Z" fill="white"/>
<path d="M79.446 3.45923L80.9997 4.26162C81.0391 4.2839 81.0713 4.31725 81.0922 4.3576C81.1131 4.39795 81.1219 4.44356 81.1176 4.48886C81.1132 4.53416 81.0958 4.57719 81.0675 4.61271C81.0392 4.64823 81.0012 4.67469 80.9582 4.68888C68.4613 8.74258 56.8811 17.4388 50.221 23.1077C49.8731 23.4034 49.4582 23.6085 49.0129 23.7048C48.5677 23.8011 48.1057 23.7857 47.6677 23.66L46.5232 23.3317C46.5232 23.3317 61.4179 9.7482 79.446 3.45923Z" fill="#263238"/>
<path opacity="0.2" d="M139.077 30.9858L114.637 49.8736L63.8053 56.7878L48.3926 35.545L114.823 30.9858H139.077Z" fill="white"/>
<path d="M23.5031 74.1536C17.0998 67.7114 17.0998 57.2666 23.5031 50.8245C29.9064 44.3823 40.2882 44.3823 46.6914 50.8245C53.0947 57.2666 53.0947 67.7114 46.6914 74.1536C40.2882 80.5957 29.9064 80.5957 23.5031 74.1536Z" fill="#263238"/>
<g opacity="0.6">
<path d="M31.1632 75.2067C31.2387 74.9638 31.2204 74.7012 31.1119 74.4714C31.0034 74.2415 30.8127 74.0612 30.5779 73.9666C28.4331 73.1213 26.57 71.6822 25.2043 69.8159C23.8387 67.9495 23.0263 65.7323 22.8612 63.4207C22.8429 63.1668 22.7295 62.9294 22.544 62.7563C22.3585 62.5832 22.1147 62.4874 21.8617 62.488C21.7238 62.492 21.5882 62.5237 21.4626 62.5811C21.3371 62.6386 21.2242 62.7206 21.1306 62.8226C21.037 62.9245 20.9646 63.0442 20.9176 63.1746C20.8707 63.3051 20.85 63.4437 20.857 63.5822C21.051 66.2694 21.9961 68.8467 23.5831 71.0168C25.1702 73.187 27.3347 74.8616 29.827 75.8475C29.9564 75.8953 30.0941 75.9165 30.2318 75.91C30.3695 75.9035 30.5045 75.8694 30.629 75.8097C30.7534 75.75 30.8648 75.6659 30.9565 75.5624C31.0482 75.4588 31.1185 75.3379 31.1632 75.2067Z" fill="black"/>
</g>
<g opacity="0.6">
<path d="M23.3372 58.9763C24.0579 56.5865 25.4776 54.4707 27.4111 52.9046C29.3446 51.3385 31.7023 50.3949 34.1768 50.1967C34.4286 50.1757 34.6634 50.06 34.8342 49.8727C35.0051 49.6854 35.0995 49.4401 35.0986 49.1859C35.0983 49.0467 35.0695 48.9091 35.0139 48.7817C34.9583 48.6543 34.8771 48.5399 34.7755 48.4455C34.6739 48.3511 34.554 48.2788 34.4234 48.2331C34.2927 48.1875 34.1541 48.1695 34.0162 48.1803C31.1391 48.4108 28.3976 49.5079 26.1492 51.3286C23.9007 53.1492 22.2494 55.609 21.4106 58.3875C21.3756 58.5209 21.3674 58.66 21.3863 58.7967C21.4052 58.9334 21.451 59.0649 21.5208 59.1837C21.5907 59.3024 21.6833 59.4061 21.7933 59.4885C21.9033 59.571 22.0284 59.6306 22.1615 59.664C22.4075 59.7185 22.6649 59.678 22.8826 59.5507C23.1003 59.4233 23.2626 59.2183 23.3372 58.9763Z" fill="black"/>
</g>
<g opacity="0.6">
<path d="M41.707 74.0239C41.7793 74.1414 41.8742 74.2432 41.9861 74.3235C42.0979 74.4037 42.2245 74.4608 42.3585 74.4913C42.4925 74.5219 42.6312 74.5253 42.7665 74.5014C42.9018 74.4775 43.0311 74.4268 43.1467 74.3521C45.1455 72.9775 46.7641 71.1143 47.8506 68.9375C48.9371 66.7607 49.4558 64.3417 49.358 61.9079C49.2601 59.474 48.5489 57.1052 47.2912 55.0238C46.0335 52.9424 44.2705 51.2168 42.1679 50.0091C42.0479 49.9387 41.9147 49.8943 41.7767 49.8787C41.6387 49.863 41.499 49.8764 41.3665 49.9181C41.234 49.9598 41.1115 50.0288 41.007 50.1207C40.9024 50.2126 40.818 50.3254 40.7592 50.452C40.6499 50.681 40.6308 50.9431 40.7057 51.1857C40.7806 51.4284 40.9441 51.6334 41.1632 51.7598C42.9727 52.796 44.4904 54.2784 45.5733 56.0676C46.6562 57.8567 47.2687 59.8937 47.3531 61.9868C47.4376 64.0798 46.9912 66.16 46.0559 68.0316C45.1207 69.9032 43.7275 71.5045 42.0073 72.6848C41.7993 72.828 41.6527 73.0451 41.597 73.2924C41.5413 73.5398 41.5806 73.7992 41.707 74.0186V74.0239Z" fill="black"/>
</g>
<g opacity="0.6">
<path d="M36.1746 76.8167C36.7204 76.7752 37.2633 76.7022 37.8008 76.5979C37.9367 76.5713 38.0657 76.5167 38.1796 76.4376C38.2936 76.3585 38.3901 76.2566 38.463 76.1382C38.536 76.0198 38.5838 75.8875 38.6035 75.7496C38.6232 75.6117 38.6144 75.4712 38.5776 75.337C38.5127 75.0919 38.3582 74.8806 38.145 74.7453C37.9318 74.6101 37.6756 74.5608 37.4279 74.6075C36.9625 74.6985 36.4921 74.7611 36.0192 74.7951C35.7673 74.816 35.5326 74.9317 35.3617 75.1191C35.1909 75.3064 35.0965 75.5516 35.0973 75.8059C35.1013 75.9437 35.1325 76.0793 35.1889 76.2049C35.2454 76.3305 35.326 76.4435 35.4262 76.5376C35.5264 76.6316 35.6441 76.7046 35.7726 76.7526C35.9011 76.8005 36.0377 76.8223 36.1746 76.8167Z" fill="black"/>
</g>
<path opacity="0.4" d="M27.9896 69.6403C24.0639 65.6907 24.0639 59.2873 27.9896 55.3377C31.9153 51.3882 38.2801 51.3882 42.2058 55.3377C46.1315 59.2873 46.1315 65.6907 42.2058 69.6403C38.2801 73.5898 31.9153 73.5898 27.9896 69.6403Z" fill="white"/>
<g opacity="0.3">
<path d="M35.0925 53.3906H35.0976C35.541 53.3906 35.9004 53.7522 35.9004 54.1982V59.3826C35.9004 59.8286 35.541 60.1902 35.0976 60.1902H35.0925C34.6491 60.1902 34.2897 59.8286 34.2897 59.3826V54.1982C34.2897 53.7522 34.6491 53.3906 35.0925 53.3906Z" fill="white"/>
</g>
<path d="M34.6168 55.2353C34.6168 54.9677 34.8324 54.7507 35.0984 54.7507C35.3644 54.7507 35.5801 54.9677 35.5801 55.2353V58.3459C35.5801 58.6135 35.3644 58.8305 35.0984 58.8305C34.8324 58.8305 34.6168 58.6135 34.6168 58.3459V55.2353Z" fill="#263238"/>
<g opacity="0.3">
<path d="M35.0925 64.7859H35.0976C35.541 64.7859 35.9004 65.1475 35.9004 65.5935V70.7779C35.9004 71.2239 35.541 71.5855 35.0976 71.5855H35.0925C34.6491 71.5855 34.2897 71.2239 34.2897 70.7779V65.5935C34.2897 65.1475 34.6491 64.7859 35.0925 64.7859Z" fill="white"/>
</g>
<path d="M34.6168 66.6303C34.6168 66.3627 34.8324 66.1458 35.0984 66.1458C35.3644 66.1458 35.5801 66.3627 35.5801 66.6303V69.7409C35.5801 70.0086 35.3644 70.2255 35.0984 70.2255C34.8324 70.2255 34.6168 70.0086 34.6168 69.7409V66.6303Z" fill="#263238"/>
<g opacity="0.3">
<path d="M38.175 61.6336L42.6341 59.0284C42.7257 58.9755 42.806 58.9049 42.8704 58.8207C42.9349 58.7365 42.9822 58.6403 43.0096 58.5377C43.037 58.4351 43.044 58.328 43.0303 58.2227C43.0165 58.1173 42.9822 58.0158 42.9293 57.9238C42.8767 57.8316 42.8066 57.7508 42.7229 57.686C42.6392 57.6212 42.5436 57.5736 42.4416 57.546C42.3396 57.5184 42.2332 57.5114 42.1285 57.5252C42.0238 57.5391 41.9228 57.5736 41.8314 57.6268L37.3671 60.232C37.2759 60.2853 37.1961 60.3562 37.1322 60.4406C37.0683 60.525 37.0215 60.6212 36.9946 60.7238C36.9676 60.8264 36.9611 60.9333 36.9752 61.0385C36.9894 61.1436 37.024 61.2449 37.0771 61.3366C37.1292 61.4292 37.199 61.5105 37.2827 61.5758C37.3663 61.641 37.462 61.6888 37.5642 61.7165C37.6664 61.7441 37.773 61.751 37.8779 61.7368C37.9827 61.7225 38.0837 61.6875 38.175 61.6336Z" fill="white"/>
</g>
<path d="M38.9051 60.8363L41.5826 59.2732C41.6878 59.2028 41.7637 59.0961 41.7961 58.9733C41.8285 58.8505 41.8152 58.7199 41.7587 58.6063C41.6887 58.5005 41.5827 58.4241 41.4606 58.3915C41.3385 58.3589 41.2087 58.3723 41.0958 58.4291L38.4234 59.9923C38.3682 60.0236 38.3197 60.0657 38.2808 60.1161C38.242 60.1665 38.2135 60.2242 38.1971 60.2859C38.1807 60.3475 38.1767 60.4118 38.1853 60.475C38.194 60.5382 38.215 60.5991 38.2473 60.654C38.2786 60.7095 38.3203 60.7582 38.3703 60.7975C38.4203 60.8367 38.4775 60.8656 38.5386 60.8825C38.5997 60.8995 38.6635 60.9041 38.7264 60.8962C38.7893 60.8883 38.85 60.8679 38.9051 60.8363Z" fill="#263238"/>
<g opacity="0.3">
<path d="M28.3651 67.313L32.8242 64.7078C33.0095 64.5999 33.1447 64.4224 33.2001 64.2143C33.2554 64.0062 33.2264 63.7845 33.1194 63.5979C33.0113 63.4124 32.8345 63.2775 32.6277 63.2228C32.421 63.1681 32.2011 63.1981 32.0163 63.3062L27.5571 65.9114C27.4656 65.9643 27.3852 66.0349 27.3208 66.1191C27.2564 66.2033 27.2091 66.2994 27.1817 66.402C27.1543 66.5047 27.1472 66.6117 27.161 66.7171C27.1748 66.8224 27.2091 66.924 27.2619 67.016C27.3692 67.2024 27.5456 67.3385 27.7524 67.3941C27.9593 67.4498 28.1796 67.4206 28.3651 67.313Z" fill="white"/>
</g>
<path d="M29.0968 66.5366L31.7692 64.9734C31.8244 64.942 31.8728 64.9 31.9118 64.8497C31.9508 64.7994 31.9795 64.7419 31.9964 64.6804C32.0132 64.6189 32.0178 64.5547 32.0099 64.4915C32.0021 64.4282 31.9819 64.3671 31.9505 64.3117C31.9188 64.2559 31.8765 64.2071 31.8259 64.1679C31.7753 64.1288 31.7175 64.1001 31.6558 64.0836C31.5942 64.0671 31.5298 64.0632 31.4666 64.0719C31.4034 64.0806 31.3425 64.1019 31.2876 64.1345L28.6152 65.6977C28.5092 65.7673 28.4322 65.8736 28.3988 65.9965C28.3654 66.1194 28.3779 66.2504 28.4339 66.3646C28.5047 66.4695 28.6111 66.5448 28.7331 66.5765C28.8551 66.6081 28.9845 66.5939 29.0968 66.5366Z" fill="#263238"/>
<g opacity="0.3">
<path d="M42.9293 67.0369C42.9822 66.9449 43.0165 66.8433 43.0303 66.7379C43.044 66.6326 43.037 66.5255 43.0096 66.4229C42.9822 66.3203 42.9349 66.2241 42.8704 66.1399C42.806 66.0557 42.7257 65.9852 42.6341 65.9323L38.175 63.3271C38.0839 63.2737 37.9832 63.2388 37.8787 63.2246C37.7742 63.2104 37.6679 63.217 37.5659 63.2441C37.464 63.2712 37.3683 63.3182 37.2844 63.3825C37.2006 63.4468 37.1301 63.5271 37.0771 63.6188C36.9696 63.8048 36.9398 64.026 36.9942 64.234C37.0485 64.442 37.1826 64.6199 37.3671 64.7287L41.8314 67.3339C41.9228 67.3871 42.0238 67.4216 42.1285 67.4354C42.2332 67.4493 42.3396 67.4422 42.4416 67.4146C42.5436 67.387 42.6392 67.3395 42.7229 67.2746C42.8066 67.2098 42.8767 67.129 42.9293 67.0369Z" fill="white"/>
</g>
<path d="M41.7587 66.3594C41.8152 66.2457 41.8285 66.1152 41.7961 65.9924C41.7637 65.8696 41.6878 65.7629 41.5826 65.6925L38.9051 64.1293C38.8505 64.0968 38.79 64.0756 38.7272 64.067C38.6644 64.0583 38.6005 64.0623 38.5392 64.0788C38.4779 64.0953 38.4206 64.1239 38.3704 64.163C38.3203 64.2021 38.2785 64.2509 38.2473 64.3065C38.215 64.3614 38.194 64.4222 38.1853 64.4854C38.1767 64.5486 38.1807 64.6129 38.1971 64.6746C38.2135 64.7362 38.242 64.7939 38.2808 64.8444C38.3197 64.8948 38.3682 64.9369 38.4234 64.9682L41.0958 66.5313C41.2082 66.5887 41.3375 66.6029 41.4595 66.5713C41.5815 66.5396 41.6879 66.4643 41.7587 66.3594Z" fill="#263238"/>
<g opacity="0.3">
<path d="M33.1198 61.3367C33.1726 61.2447 33.2069 61.1431 33.2207 61.0378C33.2345 60.9324 33.2274 60.8254 33.2 60.7227C33.1726 60.6201 33.1253 60.524 33.0609 60.4398C32.9964 60.3556 32.9161 60.285 32.8245 60.2321L28.3654 57.6269C28.18 57.5192 27.9596 57.49 27.7528 57.5457C27.5459 57.6014 27.3695 57.7374 27.2623 57.9239C27.2094 58.0159 27.1751 58.1174 27.1614 58.2228C27.1476 58.3281 27.1546 58.4352 27.182 58.5378C27.2095 58.6404 27.2567 58.7366 27.3212 58.8208C27.3856 58.905 27.4659 58.9756 27.5575 59.0285L32.0166 61.6337C32.1083 61.6877 32.2097 61.7229 32.3149 61.7371C32.4202 61.7514 32.5272 61.7446 32.6298 61.717C32.7324 61.6893 32.8286 61.6415 32.9127 61.5762C32.9968 61.5109 33.0672 61.4295 33.1198 61.3367Z" fill="white"/>
</g>
<path d="M31.9505 60.6591C31.9819 60.6037 32.0021 60.5426 32.0099 60.4794C32.0178 60.4161 32.0132 60.3519 31.9964 60.2904C31.9795 60.2289 31.9508 60.1714 31.9118 60.1211C31.8728 60.0708 31.8244 60.0288 31.7692 59.9974L29.0968 58.4343C28.9839 58.3774 28.8541 58.364 28.7321 58.3966C28.61 58.4292 28.5039 58.5056 28.4339 58.6114C28.3779 58.7257 28.3654 58.8566 28.3988 58.9795C28.4322 59.1024 28.5092 59.2087 28.6152 59.2784L31.2876 60.8415C31.3996 60.9055 31.5322 60.9223 31.6565 60.8881C31.7807 60.8539 31.8864 60.7716 31.9505 60.6591Z" fill="#263238"/>
<path d="M33.7458 62.4881C33.7458 62.7571 33.8251 63.02 33.9736 63.2436C34.1221 63.4673 34.3332 63.6416 34.5802 63.7445C34.8272 63.8474 35.099 63.8743 35.3612 63.8219C35.6234 63.7694 35.8643 63.6399 36.0533 63.4497C36.2424 63.2595 36.3711 63.0172 36.4232 62.7534C36.4754 62.4896 36.4486 62.2162 36.3463 61.9677C36.244 61.7192 36.0708 61.5068 35.8485 61.3574C35.6262 61.2079 35.3648 61.1282 35.0975 61.1282C34.739 61.1282 34.3952 61.2714 34.1417 61.5265C33.8882 61.7815 33.7458 62.1274 33.7458 62.4881Z" fill="#263238"/>
<path d="M53.9601 22.9826C58.9454 19.1048 64.2389 15.6456 69.7871 12.6399L67.1355 26.9112L64.924 27.1874C64.1791 27.2823 63.4233 27.2435 62.6919 27.0727L54.4366 25.1657C54.2094 25.1138 54.0015 24.9979 53.8373 24.8316C53.6731 24.6652 53.5594 24.4553 53.5095 24.2263C53.4595 23.9973 53.4753 23.7588 53.5551 23.5385C53.6349 23.3183 53.7754 23.1255 53.9601 22.9826Z" fill="black"/>
<path d="M111.349 4.61072L108.692 21.7165L101.783 22.5814L106.672 4.49609C108.208 4.51694 109.767 4.55515 111.349 4.61072Z" fill="black"/>
<path d="M66.9707 24.3269L71.1553 24.2175L70.2282 17.5273L66.256 18.4131C65.5941 18.5602 65.0019 18.93 64.5772 19.4614C64.1526 19.9929 63.9208 20.6542 63.9202 21.3362C63.9201 21.7356 63.9995 22.131 64.1537 22.499C64.3079 22.8671 64.5339 23.2003 64.8182 23.4791C65.1025 23.7578 65.4395 23.9765 65.8092 24.1221C66.1789 24.2677 66.5738 24.3374 66.9707 24.3269Z" fill="#1E88E5"/>
<path opacity="0.3" d="M69.094 17.7826L70.2282 17.5273L71.1553 24.2175L69.9952 24.2488L69.094 17.7826Z" fill="black"/>
<g filter="url(#filter0_f_50_1878)">
<ellipse cx="89.9513" cy="77.7778" rx="89.9513" ry="0.952381" fill="black" fill-opacity="0.09"/>
</g>
</g>
<defs>
<filter id="filter0_f_50_1878" x="-3" y="73.8254" width="185.902" height="7.90479" filterUnits="userSpaceOnUse" color-interpolation-filters="sRGB">
<feFlood flood-opacity="0" result="BackgroundImageFix"/>
<feBlend mode="normal" in="SourceGraphic" in2="BackgroundImageFix" result="shape"/>
<feGaussianBlur stdDeviation="1.5" result="effect1_foregroundBlur_50_1878"/>
</filter>
<clipPath id="clip0_50_1878">
<rect width="129" height="80" fill="white"/>
</clipPath>
</defs>
</svg>
