<svg width="12" height="13" viewBox="0 0 12 13" fill="none" xmlns="http://www.w3.org/2000/svg">
<path d="M9.71234 9.12904L6 12.8414L2.28767 9.12904C1.55345 8.39481 1.05344 7.45935 0.850875 6.44095C0.648308 5.42255 0.752279 4.36695 1.14964 3.40764C1.547 2.44834 2.21991 1.6284 3.08327 1.05153C3.94662 0.474654 4.96165 0.166748 6 0.166748C7.03835 0.166748 8.05338 0.474654 8.91674 1.05153C9.7801 1.6284 10.453 2.44834 10.8504 3.40764C11.2477 4.36695 11.3517 5.42255 11.1491 6.44095C10.9466 7.45935 10.4466 8.39481 9.71234 9.12904ZM6 7.75004C6.61884 7.75004 7.21233 7.5042 7.64992 7.06662C8.0875 6.62903 8.33334 6.03554 8.33334 5.4167C8.33334 4.79786 8.0875 4.20437 7.64992 3.76679C7.21233 3.3292 6.61884 3.08337 6 3.08337C5.38116 3.08337 4.78767 3.3292 4.35009 3.76679C3.9125 4.20437 3.66667 4.79786 3.66667 5.4167C3.66667 6.03554 3.9125 6.62903 4.35009 7.06662C4.78767 7.5042 5.38116 7.75004 6 7.75004ZM6 6.58337C5.69058 6.58337 5.39384 6.46045 5.17504 6.24166C4.95625 6.02287 4.83334 5.72612 4.83334 5.4167C4.83334 5.10728 4.95625 4.81054 5.17504 4.59174C5.39384 4.37295 5.69058 4.25004 6 4.25004C6.30942 4.25004 6.60617 4.37295 6.82496 4.59174C7.04375 4.81054 7.16667 5.10728 7.16667 5.4167C7.16667 5.72612 7.04375 6.02287 6.82496 6.24166C6.60617 6.46045 6.30942 6.58337 6 6.58337Z" fill="#151414"/>
</svg>
