<svg width="10" height="13" viewBox="0 0 10 13" fill="none" xmlns="http://www.w3.org/2000/svg">
<path d="M4.41683 9.46379C3.24008 9.31406 2.16449 8.72187 1.40869 7.80758C0.652884 6.89329 0.273576 5.72552 0.347858 4.54161C0.42214 3.3577 0.944439 2.2465 1.8086 1.43385C2.67276 0.621203 3.81392 0.168098 5.00016 0.166627C6.18785 0.165743 7.33119 0.617741 8.19722 1.43052C9.06324 2.2433 9.58677 3.35571 9.66115 4.54107C9.73552 5.72643 9.35513 6.89554 8.5975 7.8102C7.83986 8.72485 6.76198 9.31622 5.5835 9.46379V10.6736C7.88533 10.7273 9.66683 11.0954 9.66683 11.5416C9.66683 12.0246 7.57733 12.4166 5.00016 12.4166C2.423 12.4166 0.333496 12.0246 0.333496 11.5416C0.333496 11.0954 2.115 10.7273 4.41683 10.6736V9.46379ZM5.00016 5.99996C5.30958 5.99996 5.60633 5.87704 5.82512 5.65825C6.04391 5.43946 6.16683 5.14271 6.16683 4.83329C6.16683 4.52387 6.04391 4.22713 5.82512 4.00834C5.60633 3.78954 5.30958 3.66663 5.00016 3.66663C4.69074 3.66663 4.394 3.78954 4.1752 4.00834C3.95641 4.22713 3.8335 4.52387 3.8335 4.83329C3.8335 5.14271 3.95641 5.43946 4.1752 5.65825C4.394 5.87704 4.69074 5.99996 5.00016 5.99996Z" fill="#151414"/>
</svg>
