<svg width="7" height="6" viewBox="0 0 7 6" fill="none" xmlns="http://www.w3.org/2000/svg">
<path d="M6.49138 2.27836C6.47071 2.21164 6.41572 2.16301 6.34951 2.15294L4.48948 1.86959L3.65763 0.102713C3.62802 0.0398149 3.56691 0 3.50001 0C3.4331 0 3.37199 0.0398149 3.34238 0.102713L2.51049 1.86959L0.650502 2.15294C0.584303 2.16301 0.529283 2.21164 0.508612 2.27834C0.487928 2.34506 0.505178 2.41829 0.553096 2.46725L1.89897 3.84258L1.58129 5.78459C1.56997 5.85373 1.59709 5.92358 1.65122 5.96482C1.68184 5.98813 1.71811 6 1.75456 6C1.78254 6 1.81062 5.99301 1.83633 5.97883L3.5 5.06192L5.1636 5.97882C5.22283 6.01146 5.29459 6.00603 5.34872 5.9648C5.40285 5.92358 5.42997 5.8537 5.41866 5.78456L5.10089 3.84258L6.44691 2.46723C6.49482 2.41829 6.51208 2.34506 6.49138 2.27836Z" fill="#151414"/>
</svg>
