<svg width="74" height="21" viewBox="0 0 74 21" fill="none" xmlns="http://www.w3.org/2000/svg">
<path d="M70.7442 0H3.34912C1.86027 0 0.65332 1.15287 0.65332 2.575V18.025C0.65332 19.4471 1.86027 20.6 3.34912 20.6H70.7442C72.233 20.6 73.44 19.4471 73.44 18.025V2.575C73.44 1.15287 72.233 0 70.7442 0Z" fill="#151414"/>
<path d="M70.7442 0.412002C71.3448 0.412002 71.9207 0.639887 72.3454 1.04553C72.7701 1.45117 73.0087 2.00134 73.0087 2.575V18.025C73.0087 18.5987 72.7701 19.1488 72.3454 19.5545C71.9207 19.9601 71.3448 20.188 70.7442 20.188H3.34912C2.74855 20.188 2.17257 19.9601 1.7479 19.5545C1.32323 19.1488 1.08465 18.5987 1.08465 18.025V2.575C1.08465 2.29095 1.14322 2.00968 1.25702 1.74726C1.37082 1.48483 1.53762 1.24638 1.7479 1.04553C1.95817 0.844675 2.20781 0.685349 2.48255 0.576648C2.75728 0.467947 3.05175 0.412002 3.34912 0.412002H70.7442ZM70.7442 0H3.34912C2.63415 0 1.94846 0.271292 1.4429 0.754198C0.937342 1.2371 0.65332 1.89207 0.65332 2.575V18.025C0.65332 18.7079 0.937342 19.3629 1.4429 19.8458C1.94846 20.3287 2.63415 20.6 3.34912 20.6H70.7442C71.4592 20.6 72.1448 20.3287 72.6504 19.8458C73.156 19.3629 73.44 18.7079 73.44 18.025V2.575C73.44 1.89207 73.156 1.2371 72.6504 0.754198C72.1448 0.271292 71.4592 0 70.7442 0Z" fill="white"/>
<g clip-path="url(#clip0_55_1226)">
<path d="M11.8714 8.82014L6.94633 13.7453L6.13721 12.9361L11.0618 8.01102H6.72145V6.86658H13.0159V13.161H11.8714V8.82014Z" fill="white"/>
</g>
<path d="M19.2033 4.43699L19.9831 6.79545H20.0138L20.7921 4.43699H21.3891L20.3327 7.43335H19.6627L18.6078 4.43699H19.2033ZM22.3265 4.43699V7.43335H21.7837V4.43699H22.3265ZM24.5427 5.26069C24.5291 5.13292 24.4715 5.03343 24.3701 4.96223C24.2696 4.89102 24.1389 4.85542 23.978 4.85542C23.8648 4.85542 23.7678 4.87249 23.6868 4.90663C23.6059 4.94077 23.5439 4.9871 23.501 5.04562C23.4581 5.10415 23.4362 5.17096 23.4352 5.24606C23.4352 5.30849 23.4493 5.36262 23.4776 5.40846C23.5069 5.45431 23.5464 5.49332 23.5961 5.52551C23.6459 5.55672 23.701 5.58306 23.7614 5.60451C23.8219 5.62597 23.8829 5.64402 23.9443 5.65865L24.2252 5.72888C24.3384 5.75521 24.4471 5.79081 24.5515 5.83568C24.6568 5.88055 24.751 5.93712 24.8339 6.0054C24.9178 6.07367 24.9841 6.15609 25.0329 6.25265C25.0816 6.34922 25.106 6.46236 25.106 6.59209C25.106 6.76765 25.0611 6.92225 24.9714 7.05588C24.8817 7.18853 24.7519 7.29241 24.5822 7.36751C24.4135 7.44164 24.2091 7.4787 23.9692 7.4787C23.7361 7.4787 23.5337 7.44262 23.362 7.37044C23.1913 7.29826 23.0577 7.19292 22.9611 7.05441C22.8656 6.91591 22.8139 6.74717 22.8061 6.54819H23.3401C23.3479 6.65256 23.3801 6.73937 23.4366 6.80862C23.4932 6.87787 23.5669 6.92957 23.6576 6.9637C23.7493 6.99784 23.8517 7.01491 23.9648 7.01491C24.0828 7.01491 24.1862 6.99736 24.275 6.96224C24.3647 6.92615 24.4349 6.87641 24.4857 6.81301C24.5364 6.74863 24.5622 6.67353 24.5632 6.5877C24.5622 6.50967 24.5393 6.44529 24.4944 6.39457C24.4496 6.34288 24.3867 6.29996 24.3057 6.26582C24.2257 6.23071 24.1321 6.1995 24.0248 6.17218L23.6839 6.0844C23.4371 6.021 23.2421 5.92493 23.0987 5.79618C22.9563 5.66645 22.8851 5.4943 22.8851 5.27971C22.8851 5.10317 22.9329 4.94857 23.0284 4.81592C23.125 4.68327 23.2562 4.58037 23.422 4.50721C23.5878 4.43308 23.7756 4.39602 23.9853 4.39602C24.1979 4.39602 24.3842 4.43308 24.5442 4.50721C24.7051 4.58037 24.8314 4.68229 24.9231 4.81299C25.0148 4.94272 25.0621 5.09195 25.065 5.26069H24.5427ZM26.1327 4.43699V7.43335H25.5899V4.43699H26.1327ZM26.5888 4.892V4.43699H28.9795V4.892H28.0534V7.43335H27.5149V4.892H26.5888ZM32.3511 4.43699H32.8939V6.39457C32.8939 6.60915 32.8432 6.79789 32.7418 6.96078C32.6413 7.12367 32.4999 7.25095 32.3175 7.34264C32.1351 7.43335 31.922 7.4787 31.6781 7.4787C31.4333 7.4787 31.2197 7.43335 31.0373 7.34264C30.8549 7.25095 30.7135 7.12367 30.613 6.96078C30.5125 6.79789 30.4623 6.60915 30.4623 6.39457V4.43699H31.0051V6.34922C31.0051 6.47406 31.0324 6.58526 31.087 6.6828C31.1426 6.78033 31.2207 6.8569 31.3211 6.9125C31.4216 6.96712 31.5406 6.99443 31.6781 6.99443C31.8156 6.99443 31.9346 6.96712 32.0351 6.9125C32.1365 6.8569 32.2146 6.78033 32.2692 6.6828C32.3238 6.58526 32.3511 6.47406 32.3511 6.34922V4.43699ZM35.1123 5.26069C35.0986 5.13292 35.0411 5.03343 34.9397 4.96223C34.8392 4.89102 34.7085 4.85542 34.5475 4.85542C34.4344 4.85542 34.3374 4.87249 34.2564 4.90663C34.1754 4.94077 34.1135 4.9871 34.0706 5.04562C34.0277 5.10415 34.0057 5.17096 34.0048 5.24606C34.0048 5.30849 34.0189 5.36262 34.0472 5.40846C34.0764 5.45431 34.1159 5.49332 34.1657 5.52551C34.2154 5.55672 34.2705 5.58306 34.331 5.60451C34.3915 5.62597 34.4524 5.64402 34.5139 5.65865L34.7948 5.72888C34.908 5.75521 35.0167 5.79081 35.1211 5.83568C35.2264 5.88055 35.3205 5.93712 35.4034 6.0054C35.4873 6.07367 35.5537 6.15609 35.6024 6.25265C35.6512 6.34922 35.6756 6.46236 35.6756 6.59209C35.6756 6.76765 35.6307 6.92225 35.541 7.05588C35.4512 7.18853 35.3215 7.29241 35.1518 7.36751C34.9831 7.44164 34.7787 7.4787 34.5388 7.4787C34.3057 7.4787 34.1033 7.44262 33.9316 7.37044C33.7609 7.29826 33.6273 7.19292 33.5307 7.05441C33.4351 6.91591 33.3834 6.74717 33.3756 6.54819H33.9097C33.9175 6.65256 33.9496 6.73937 34.0062 6.80862C34.0628 6.87787 34.1364 6.92957 34.2271 6.9637C34.3188 6.99784 34.4212 7.01491 34.5344 7.01491C34.6524 7.01491 34.7558 6.99736 34.8446 6.96224C34.9343 6.92615 35.0045 6.87641 35.0552 6.81301C35.106 6.74863 35.1318 6.67353 35.1328 6.5877C35.1318 6.50967 35.1089 6.44529 35.064 6.39457C35.0191 6.34288 34.9562 6.29996 34.8753 6.26582C34.7953 6.23071 34.7017 6.1995 34.5944 6.17218L34.2535 6.0844C34.0067 6.021 33.8116 5.92493 33.6682 5.79618C33.5258 5.66645 33.4546 5.4943 33.4546 5.27971C33.4546 5.10317 33.5024 4.94857 33.598 4.81592C33.6946 4.68327 33.8258 4.58037 33.9916 4.50721C34.1574 4.43308 34.3452 4.39602 34.5549 4.39602C34.7675 4.39602 34.9538 4.43308 35.1138 4.50721C35.2747 4.58037 35.401 4.68229 35.4927 4.81299C35.5844 4.94272 35.6317 5.09195 35.6346 5.26069H35.1123Z" fill="white"/>
<path d="M20.0694 16.6133L18.7468 12.1187H19.651L20.5317 15.4194H20.5756L21.4593 12.1187H22.3635L23.2413 15.4048H23.2852L24.1601 12.1187H25.0643L23.7446 16.6133H22.8521L21.9392 13.3682H21.8719L20.9589 16.6133H20.0694ZM26.869 16.6133L25.5464 12.1187H26.4506L27.3313 15.4194H27.3752L28.2589 12.1187H29.1631L30.0409 15.4048H30.0848L30.9597 12.1187H31.8639L30.5442 16.6133H29.6518L28.7388 13.3682H28.6715L27.7585 16.6133H26.869ZM33.6686 16.6133L32.346 12.1187H33.2502L34.1309 15.4194H34.1748L35.0585 12.1187H35.9627L36.8405 15.4048H36.8844L37.7593 12.1187H38.6635L37.3438 16.6133H36.4514L35.5384 13.3682H35.4711L34.5582 16.6133H33.6686ZM39.4587 16.6689C39.2987 16.6689 39.1612 16.6123 39.0461 16.4992C38.931 16.3841 38.8735 16.2456 38.8735 16.0837C38.8735 15.9237 38.931 15.7871 39.0461 15.674C39.1612 15.5589 39.2987 15.5013 39.4587 15.5013C39.6187 15.5013 39.7562 15.5589 39.8713 15.674C39.9864 15.7871 40.0439 15.9237 40.0439 16.0837C40.0439 16.1909 40.0166 16.2895 39.962 16.3792C39.9093 16.467 39.8391 16.5372 39.7513 16.5899C39.6635 16.6425 39.566 16.6689 39.4587 16.6689ZM41.2158 12.1187H42.0908V16.9059C42.0908 17.2063 42.0361 17.4599 41.9269 17.6667C41.8196 17.8735 41.6596 18.0305 41.447 18.1378C41.2363 18.2451 40.9759 18.2987 40.6657 18.2987C40.6345 18.2987 40.6053 18.2987 40.578 18.2987C40.5487 18.2987 40.5185 18.2978 40.4872 18.2958V17.5438C40.5146 17.5438 40.5389 17.5438 40.5604 17.5438C40.5799 17.5438 40.6023 17.5438 40.6277 17.5438C40.8345 17.5438 40.9837 17.4882 41.0754 17.377C41.169 17.2678 41.2158 17.1088 41.2158 16.9V12.1187ZM41.6489 11.4252C41.4968 11.4252 41.3661 11.3745 41.2568 11.2731C41.1495 11.1697 41.0959 11.0468 41.0959 10.9044C41.0959 10.76 41.1495 10.6371 41.2568 10.5357C41.3661 10.4323 41.4968 10.3806 41.6489 10.3806C41.8011 10.3806 41.9308 10.4323 42.0381 10.5357C42.1473 10.6371 42.202 10.76 42.202 10.9044C42.202 11.0468 42.1473 11.1697 42.0381 11.2731C41.9308 11.3745 41.8011 11.4252 41.6489 11.4252ZM44.5758 16.7128C44.291 16.7128 44.0335 16.6601 43.8033 16.5548C43.5731 16.4475 43.3907 16.2924 43.2561 16.0895C43.1234 15.8866 43.0571 15.6379 43.0571 15.3433C43.0571 15.0897 43.1059 14.881 43.2034 14.7171C43.301 14.5533 43.4326 14.4236 43.5985 14.328C43.7643 14.2324 43.9496 14.1602 44.1544 14.1114C44.3592 14.0627 44.568 14.0256 44.7806 14.0002C45.0498 13.969 45.2683 13.9437 45.4361 13.9242C45.6038 13.9027 45.7258 13.8686 45.8018 13.8217C45.8779 13.7749 45.916 13.6988 45.916 13.5935V13.573C45.916 13.3175 45.8438 13.1195 45.6994 12.979C45.557 12.8386 45.3444 12.7683 45.0615 12.7683C44.767 12.7683 44.5348 12.8337 44.3651 12.9644C44.1973 13.0931 44.0813 13.2365 44.0169 13.3945L43.1946 13.2073C43.2922 12.9342 43.4346 12.7137 43.6219 12.546C43.8111 12.3762 44.0286 12.2533 44.2744 12.1773C44.5202 12.0992 44.7787 12.0602 45.0498 12.0602C45.2293 12.0602 45.4195 12.0817 45.6204 12.1246C45.8233 12.1656 46.0125 12.2416 46.1881 12.3528C46.3656 12.464 46.5109 12.623 46.6241 12.8298C46.7372 13.0346 46.7938 13.3009 46.7938 13.6286V16.6133H45.9394V15.9988H45.9042C45.8477 16.1119 45.7628 16.2231 45.6497 16.3324C45.5365 16.4416 45.3912 16.5323 45.2137 16.6045C45.0362 16.6767 44.8235 16.7128 44.5758 16.7128ZM44.766 16.0105C45.0079 16.0105 45.2147 15.9627 45.3863 15.8671C45.5599 15.7715 45.6916 15.6467 45.7814 15.4926C45.873 15.3365 45.9189 15.1697 45.9189 14.9922V14.4128C45.8877 14.444 45.8272 14.4733 45.7375 14.5006C45.6497 14.526 45.5492 14.5484 45.4361 14.5679C45.3229 14.5855 45.2127 14.6021 45.1054 14.6177C44.9981 14.6313 44.9084 14.643 44.8362 14.6528C44.6665 14.6742 44.5114 14.7103 44.371 14.761C44.2325 14.8118 44.1213 14.8849 44.0374 14.9805C43.9554 15.0741 43.9145 15.199 43.9145 15.355C43.9145 15.5716 43.9945 15.7354 44.1544 15.8466C44.3144 15.9559 44.5182 16.0105 44.766 16.0105ZM50.0572 12.1187V12.821H47.6021V12.1187H50.0572ZM48.2605 11.0419H49.1354V15.2936C49.1354 15.4633 49.1608 15.5911 49.2115 15.6769C49.2622 15.7608 49.3276 15.8183 49.4076 15.8496C49.4895 15.8788 49.5783 15.8935 49.6738 15.8935C49.7441 15.8935 49.8055 15.8886 49.8582 15.8788C49.9109 15.8691 49.9518 15.8613 49.9811 15.8554L50.1391 16.5782C50.0884 16.5977 50.0162 16.6172 49.9226 16.6367C49.8289 16.6581 49.7119 16.6699 49.5714 16.6718C49.3412 16.6757 49.1267 16.6347 48.9277 16.5489C48.7287 16.4631 48.5678 16.3304 48.4449 16.151C48.322 15.9715 48.2605 15.7462 48.2605 15.475V11.0419ZM51.025 16.6133V12.1187H51.8706V12.8327H51.9175C51.9994 12.5908 52.1437 12.4006 52.3505 12.2621C52.5593 12.1217 52.7953 12.0514 53.0587 12.0514C53.1133 12.0514 53.1777 12.0534 53.2518 12.0573C53.3279 12.0612 53.3874 12.0661 53.4303 12.0719V12.9088C53.3952 12.899 53.3327 12.8883 53.243 12.8766C53.1533 12.8629 53.0635 12.8561 52.9738 12.8561C52.767 12.8561 52.5827 12.9 52.4208 12.9878C52.2608 13.0736 52.134 13.1936 52.0404 13.3477C51.9467 13.4999 51.8999 13.6735 51.8999 13.8686V16.6133H51.025ZM54.1874 16.6133V12.1187H55.0623V16.6133H54.1874ZM54.6293 11.4252C54.4771 11.4252 54.3464 11.3745 54.2372 11.2731C54.1299 11.1697 54.0762 11.0468 54.0762 10.9044C54.0762 10.76 54.1299 10.6371 54.2372 10.5357C54.3464 10.4323 54.4771 10.3806 54.6293 10.3806C54.7814 10.3806 54.9111 10.4323 55.0184 10.5357C55.1277 10.6371 55.1823 10.76 55.1823 10.9044C55.1823 11.0468 55.1277 11.1697 55.0184 11.2731C54.9111 11.3745 54.7814 11.4252 54.6293 11.4252ZM56.8158 16.6689C56.6559 16.6689 56.5183 16.6123 56.4032 16.4992C56.2881 16.3841 56.2306 16.2456 56.2306 16.0837C56.2306 15.9237 56.2881 15.7871 56.4032 15.674C56.5183 15.5589 56.6559 15.5013 56.8158 15.5013C56.9758 15.5013 57.1133 15.5589 57.2284 15.674C57.3435 15.7871 57.401 15.9237 57.401 16.0837C57.401 16.1909 57.3737 16.2895 57.3191 16.3792C57.2664 16.467 57.1962 16.5372 57.1084 16.5899C57.0206 16.6425 56.9231 16.6689 56.8158 16.6689ZM60.4662 16.704C60.0311 16.704 59.6566 16.6055 59.3425 16.4085C59.0304 16.2095 58.7905 15.9354 58.6227 15.5862C58.4549 15.237 58.3711 14.8371 58.3711 14.3865C58.3711 13.93 58.4569 13.5272 58.6286 13.178C58.8002 12.8269 59.0421 12.5528 59.3542 12.3558C59.6664 12.1587 60.0341 12.0602 60.4574 12.0602C60.7988 12.0602 61.1031 12.1236 61.3703 12.2504C61.6376 12.3753 61.8532 12.5508 62.017 12.7771C62.1828 13.0034 62.2813 13.2677 62.3126 13.5701H61.4611C61.4142 13.3594 61.3069 13.178 61.1392 13.0258C60.9734 12.8737 60.751 12.7976 60.472 12.7976C60.2282 12.7976 60.0146 12.862 59.8312 12.9907C59.6498 13.1175 59.5083 13.2989 59.4069 13.535C59.3055 13.7691 59.2547 14.0461 59.2547 14.366C59.2547 14.6937 59.3045 14.9766 59.404 15.2146C59.5035 15.4526 59.6439 15.6369 59.8253 15.7676C60.0087 15.8983 60.2243 15.9637 60.472 15.9637C60.6378 15.9637 60.788 15.9334 60.9226 15.873C61.0592 15.8105 61.1733 15.7218 61.265 15.6067C61.3586 15.4916 61.424 15.3531 61.4611 15.1912H62.3126C62.2813 15.4818 62.1867 15.7413 62.0287 15.9695C61.8707 16.1978 61.6591 16.3772 61.3938 16.5079C61.1304 16.6386 60.8212 16.704 60.4662 16.704ZM65.1414 16.704C64.72 16.704 64.3523 16.6074 64.0382 16.4143C63.7242 16.2212 63.4803 15.951 63.3067 15.6038C63.1331 15.2565 63.0463 14.8508 63.0463 14.3865C63.0463 13.9203 63.1331 13.5126 63.3067 13.1634C63.4803 12.8142 63.7242 12.543 64.0382 12.3499C64.3523 12.1568 64.72 12.0602 65.1414 12.0602C65.5628 12.0602 65.9305 12.1568 66.2446 12.3499C66.5586 12.543 66.8025 12.8142 66.9761 13.1634C67.1497 13.5126 67.2365 13.9203 67.2365 14.3865C67.2365 14.8508 67.1497 15.2565 66.9761 15.6038C66.8025 15.951 66.5586 16.2212 66.2446 16.4143C65.9305 16.6074 65.5628 16.704 65.1414 16.704ZM65.1443 15.9695C65.4174 15.9695 65.6437 15.8974 65.8232 15.753C66.0027 15.6086 66.1353 15.4165 66.2211 15.1765C66.3089 14.9366 66.3528 14.6723 66.3528 14.3836C66.3528 14.0968 66.3089 13.8335 66.2211 13.5935C66.1353 13.3516 66.0027 13.1575 65.8232 13.0112C65.6437 12.8649 65.4174 12.7917 65.1443 12.7917C64.8693 12.7917 64.641 12.8649 64.4596 13.0112C64.2801 13.1575 64.1465 13.3516 64.0587 13.5935C63.9729 13.8335 63.93 14.0968 63.93 14.3836C63.93 14.6723 63.9729 14.9366 64.0587 15.1765C64.1465 15.4165 64.2801 15.6086 64.4596 15.753C64.641 15.8974 64.8693 15.9695 65.1443 15.9695Z" fill="white"/>
<defs>
<clipPath id="clip0_55_1226">
<rect width="13.7333" height="13.7333" fill="white" transform="translate(2.71338 3.43335)"/>
</clipPath>
</defs>
</svg>
