<svg width="89" height="44" viewBox="0 0 89 44" fill="none" xmlns="http://www.w3.org/2000/svg">
<path d="M41.5119 34.619C40.7369 35.5591 39.778 36.3266 38.6954 36.873C37.6559 37.3835 36.514 37.6447 35.3585 37.6364C33.348 37.6364 31.6989 36.8705 30.411 35.3388C29.1232 33.8071 28.4788 31.8188 28.478 29.3738C28.478 26.3104 29.3504 23.7667 31.0951 21.7427C32.8399 19.7186 35.0181 18.7071 37.6299 18.7079C38.7613 18.6888 39.88 18.9509 40.888 19.4712C41.8478 19.981 42.7144 20.7676 43.4879 21.8311L43.8866 19.2695H49.7446L47.5988 32.9802C47.4241 34.0966 46.8616 35.1134 46.0124 35.8475C45.1632 36.5817 44.0831 36.985 42.9662 36.9851H41.219L41.5119 34.619ZM34.6978 28.7574C34.6978 29.8915 35.0386 30.8047 35.7203 31.4971C36.4019 32.1894 37.3042 32.5344 38.4272 32.5319C39.6519 32.5319 40.6715 32.0496 41.486 31.0849C42.3006 30.1202 42.7078 28.9127 42.7078 27.4623C42.7078 26.3631 42.367 25.4715 41.6854 24.7874C41.0037 24.1033 40.1141 23.7609 39.0166 23.76C38.4298 23.7478 37.8477 23.8689 37.3133 24.1143C36.7788 24.3598 36.3055 24.7234 35.9282 25.1784C35.1079 26.1265 34.6978 27.3195 34.6978 28.7574Z" fill="white"/>
<path d="M63.7358 36.9852L66.508 19.2672H72.4361L72.0006 22.2908C72.5436 21.1692 73.2716 20.3153 74.1846 19.7292C75.0975 19.1431 76.1606 18.8525 77.3738 18.8575C77.5186 18.8585 77.6631 18.8672 77.8069 18.8836C77.9693 18.9011 78.2228 18.9397 78.5698 18.9982L77.3394 24.5584C76.935 24.4655 76.5708 24.3953 76.2468 24.348C75.937 24.3027 75.6246 24.2794 75.3116 24.2783C74.1206 24.2783 73.1814 24.6556 72.494 25.4102C71.8066 26.1649 71.3357 27.3313 71.0815 28.9095L70.3924 33.3751C70.2368 34.3847 69.7296 35.3046 68.9623 35.9687C68.1951 36.6328 67.2185 36.9974 66.209 36.9964L63.7358 36.9852Z" fill="white"/>
<path d="M78.8296 36.9852L81.5857 19.2671H87.808L85.672 32.9143C85.4942 34.0492 84.9221 35.0827 84.0588 35.8289C83.1954 36.5751 82.0973 36.9851 80.9619 36.9852H78.8296Z" fill="white"/>
<path d="M82.0531 13.9874C82.0544 13.1038 82.4019 12.2568 83.0194 11.6321C83.6368 11.0074 84.4739 10.656 85.347 10.655C86.305 10.655 87.1024 10.9705 87.7389 11.6015C88.0521 11.9109 88.2985 12.2827 88.4626 12.6934C88.6267 13.104 88.705 13.5446 88.6925 13.9874C88.6966 14.4332 88.6128 14.8754 88.4462 15.2881C88.2795 15.7008 88.0332 16.0757 87.7217 16.3909C87.4103 16.7062 87.0398 16.9554 86.6321 17.1241C86.2243 17.2928 85.7874 17.3775 85.347 17.3734C84.9113 17.3799 84.4791 17.2946 84.0777 17.1231C83.6764 16.9516 83.3146 16.6976 83.0153 16.3772C82.7043 16.0648 82.4588 15.6922 82.2935 15.2816C82.1281 14.871 82.0464 14.4308 82.0531 13.9874Z" fill="white"/>
<path d="M61.408 18.1924H55.2645L55.1009 19.2671H52.1897L51.4785 23.7937H54.3909L52.3275 36.9851H54.7428C55.7843 36.9852 56.7915 36.6088 57.583 35.9239C58.3746 35.239 58.8985 34.2905 59.0604 33.2492L60.5258 23.795H63.6634L64.3745 19.2683H61.237L61.408 18.1924Z" fill="white"/>
<path d="M62.0517 14.1278H55.8811L55.2646 18.1924H61.4069L62.0517 14.1278Z" fill="white"/>
<path d="M13.5161 4.09337C13.5093 3.57135 13.6076 3.05339 13.8049 2.57104C14.0023 2.0887 14.2946 1.65206 14.664 1.28772C15.0233 0.909026 15.4559 0.609396 15.9348 0.407557C16.4137 0.205718 16.9286 0.106007 17.4473 0.114654C18.5916 0.114654 19.5431 0.491563 20.3018 1.24538C21.0606 1.9992 21.44 2.94853 21.44 4.09337C21.45 4.62554 21.3523 5.15416 21.153 5.64672C20.9537 6.13928 20.6569 6.58536 20.2809 6.95755C19.9132 7.33806 19.4724 7.63841 18.9857 7.84015C18.4991 8.04188 17.9768 8.14073 17.4509 8.13062C16.9314 8.13889 16.4159 8.03802 15.9368 7.8344C15.4578 7.63077 15.0256 7.32881 14.6677 6.94759C14.2958 6.57484 14.002 6.12988 13.8041 5.63942C13.6062 5.14896 13.5082 4.62309 13.5161 4.09337Z" fill="white"/>
<path d="M3.52766 25.5784C3.04656 25.6468 2.64914 25.7029 2.28862 25.9009C1.93913 26.0632 1.63929 26.3179 1.42062 26.638C1.20194 26.9582 1.0725 27.332 1.0459 27.7203L2.48426 38.8208L2.83001 41.624C2.84302 41.8045 2.87646 41.9829 2.92967 42.1557C2.97324 42.2946 3.03667 42.4264 3.11793 42.5467C3.28083 42.7894 3.50581 42.9826 3.76882 43.1059C4.04766 43.2346 4.35146 43.2984 4.65788 43.2925C4.96429 43.2867 5.26552 43.2115 5.53939 43.0722C5.79002 42.9516 6.00298 42.7635 6.15491 42.5284C6.30684 42.2934 6.39188 42.0205 6.40069 41.7398L5.22933 30.6666L5.10629 29.4749L6.29118 29.3503L13.1225 28.6144L14.8315 28.4413C15.3097 28.4006 15.7816 28.3041 16.2379 28.1536C17.0586 27.8597 17.4991 27.3803 17.8091 26.475C18.0909 25.6319 18.2238 24.3667 18.4551 23.2571L19.058 19.8326L20.2651 12.9834L20.5677 11.2986C20.6537 10.8464 20.6575 10.3822 20.5788 9.92874C20.5557 9.76275 20.4969 9.60392 20.4065 9.46343C20.3162 9.32293 20.1965 9.20419 20.0559 9.11556C19.7655 8.9325 19.309 8.84284 18.8255 8.83163C16.799 8.8005 14.6691 9.65602 13.3292 11.2986C12.6416 12.1198 12.1446 13.0866 11.8748 14.1279C11.7503 14.6885 11.6587 15.2561 11.6004 15.8277L11.3667 17.5861L10.434 24.4177C8.60683 24.8436 6.75628 25.0715 4.9168 25.3679L3.52766 25.5784Z" fill="white"/>
<path d="M29.2694 9.84766H23.3917L22.742 13.9995L22.6941 14.3033L22.2585 17.0019C21.7183 20.3642 21.1597 23.8361 20.574 27.2531C20.2049 29.4137 18.6054 30.9131 16.3906 31.1683C15.2402 31.3016 13.7957 31.4635 8.66357 31.6104L10.0429 37.5604C14.1525 37.5405 16.2823 37.1507 16.7917 37.0735C22.0235 36.279 25.3813 33.3464 26.2463 28.816C26.9845 24.9693 27.5813 21.0441 28.1719 17.18C28.3688 15.8907 28.5677 14.6009 28.7686 13.3108C28.7785 13.2523 28.7748 13.1975 28.7809 13.1402L29.2694 9.84766Z" fill="white"/>
</svg>
